<svg width="49" height="46" viewBox="0 0 49 46" fill="none" xmlns="http://www.w3.org/2000/svg">
<path d="M23.9378 33.1985C21.9408 33.1985 20.3986 34.3855 19.1721 35.9434C18.4687 36.8372 18.824 37.1921 19.8944 36.8081C20.9667 36.4221 22.4007 36.0514 23.9379 36.0514C25.5094 36.0514 27.0121 36.4408 28.1342 36.8353C29.2065 37.2128 29.5702 36.8387 28.8514 35.9568C27.5766 34.3905 25.9399 33.1984 23.9379 33.1984L23.9378 33.1985Z" fill="#412300"/>
<path d="M20.0358 23.0794C20.0358 25.2928 17.9425 27.0869 15.3612 27.0869C12.7791 27.0869 10.6858 25.2928 10.6858 23.0794C10.6858 20.8668 12.7791 19.0726 15.3612 19.0726C17.9425 19.0726 20.0358 20.8668 20.0358 23.0794Z" fill="#9E5E12"/>
<path d="M37.4001 23.0794C37.4001 25.2928 35.3068 27.0869 32.7247 27.0869C30.1433 27.0869 28.05 25.2928 28.05 23.0794C28.05 20.8668 30.1433 19.0726 32.7247 19.0726C35.3068 19.0726 37.4001 20.8668 37.4001 23.0794Z" fill="#9E5E12"/>
<path d="M34.7286 21.7439C34.7286 22.4817 33.8315 23.0798 32.7249 23.0798C31.6186 23.0798 30.7214 22.4817 30.7214 21.7439C30.7214 21.0064 31.6186 20.4083 32.7249 20.4083C33.8315 20.4083 34.7286 21.0064 34.7286 21.7439Z" fill="#FFECD6"/>
<path d="M17.3643 21.7439C17.3643 22.4817 16.4672 23.0798 15.3606 23.0798C14.2543 23.0798 13.3572 22.4817 13.3572 21.7439C13.3572 21.0064 14.2543 20.4083 15.3606 20.4083C16.4672 20.4083 17.3643 21.0064 17.3643 21.7439Z" fill="#FFECD6"/>
<path d="M46.41 21.5325C45.8303 21.1909 45.1421 21.0454 44.4612 21.0883C45.1061 19.4037 45.4649 17.5763 45.4649 15.6619C45.4649 7.21419 38.6198 0.37262 30.1736 0.37262C27.9779 0.37262 25.9069 0.866621 24.0198 1.70068C22.1326 0.867013 20.0621 0.37262 17.8659 0.37262C9.42159 0.37262 2.57464 7.21428 2.57464 15.6619C2.57464 17.5748 2.93154 19.4037 3.57644 21.0883C2.90055 21.0454 2.21779 21.1878 1.63949 21.5256C0.896586 21.9595 -0.294022 23.0849 0.0663493 25.7407C0.433593 28.4477 2.19701 29.6298 3.61428 30.5768C4.30741 31.0417 4.90597 31.4415 5.21311 31.9252L5.67992 32.6578C8.52789 40.2136 15.3764 45.1521 24.0191 45.1521C32.6617 45.1521 39.5123 40.2115 42.3582 32.6558L42.825 31.9232C43.1321 31.443 43.7291 31.0413 44.4223 30.5799C45.8391 29.6294 47.6029 28.4492 47.9702 25.7417C48.3302 23.0933 47.1465 21.9678 46.4085 21.5321L46.41 21.5325ZM2.10868 25.4631C2.0229 24.8316 1.98346 23.7115 2.68157 23.3013C3.17403 23.0149 3.88248 23.1416 4.25471 23.425L4.29416 23.456C4.27539 23.811 4.24782 24.1645 4.24782 24.5283C4.24782 25.9934 4.37649 27.4103 4.61659 28.7675C3.43333 27.9729 2.34035 27.1817 2.1087 25.4631L2.10868 25.4631ZM24.0202 43.0954C13.756 43.0954 6.30648 35.286 6.30648 24.5288C6.30648 14.446 12.848 6.95432 22.1193 6.05143C20.9031 8.1067 18.3775 10.2201 18.3416 10.2496L17.6603 10.8141L18.525 10.6253C18.7429 10.5789 23.1418 9.56495 25.2449 6.35014C24.6824 7.85819 23.3302 10.6855 20.6488 12.4389C25.9449 11.5673 28.1821 8.08984 28.9059 6.61277C36.559 8.6749 41.7336 15.5718 41.7336 24.5284C41.7339 35.2846 34.285 43.094 24.0209 43.094L24.0202 43.0954ZM45.9316 25.4631C45.7 27.1817 44.607 27.9729 43.4234 28.7671C43.6654 27.4099 43.7921 25.9946 43.7921 24.5279C43.7921 24.1641 43.7645 23.8107 43.7458 23.4556L43.7902 23.4212C44.1678 23.1431 44.8762 23.0179 45.3618 23.3044C46.0584 23.7164 46.0174 24.8331 45.9316 25.4631L45.9316 25.4631Z" fill="#412300"/>
</svg>
