<svg width="6" height="11" viewBox="0 0 6 11" fill="none" xmlns="http://www.w3.org/2000/svg">
<g clip-path="url(#clip0_0_933)">
<path fill-rule="evenodd" clip-rule="evenodd" d="M1.25855 10.7901C1.1171 10.925 0.930865 11 0.737542 11C0.544233 11 0.357998 10.925 0.216539 10.7901C0.0790854 10.6592 0.00110929 10.4756 0.00110929 10.2835C0.00110929 10.0912 0.0790854 9.90757 0.216539 9.7767L4.22014 5.88219L0.215611 1.98767C0.0781575 1.8568 0 1.67321 0 1.4809C0 1.28877 0.0781575 1.10519 0.215611 0.974324C0.357056 0.839559 0.54329 0.764745 0.736614 0.764745C0.929923 0.764745 1.11598 0.839554 1.25743 0.974324L5.78291 5.37561C5.92055 5.50648 5.99907 5.68988 5.99998 5.88219C5.99925 6.07432 5.92109 6.25772 5.784 6.38876L1.25855 10.7901Z" fill="black" stroke="black"/>
</g>
<defs>
<clipPath id="clip0_0_933">
<rect width="5.99998" height="10.2353" fill="white" transform="translate(0 0.764771)"/>
</clipPath>
</defs>
</svg>
